# Open rectangular rail tile: 0.15 m wide, 0.15 m high, 1 m long.
# Sweep source starts at Z=0 and extends toward negative Z. End caps omitted.
o rail_sweep
v -0.075 0.000 0.000
v  0.075 0.000 0.000
v  0.075 0.150 0.000
v -0.075 0.150 0.000
v -0.075 0.000 -1.000
v  0.075 0.000 -1.000
v  0.075 0.150 -1.000
v -0.075 0.150 -1.000
vt 0.00 0.00
vt 1.00 0.00
vt 1.00 1.00
vt 0.00 1.00
vt 0.00 0.00
vt 1.00 0.00
vt 1.00 1.00
vt 0.00 1.00
vn  0.0  1.0  0.0
vn  1.0  0.0  0.0
vn -1.0  0.0  0.0
vn  0.0 -1.0  0.0
f 4/4/1 3/3/1 7/7/1
f 4/4/1 7/7/1 8/8/1
f 3/3/2 2/2/2 6/6/2
f 3/3/2 6/6/2 7/7/2
f 1/1/3 4/4/3 8/8/3
f 1/1/3 8/8/3 5/5/3
f 1/1/4 5/5/4 6/6/4
f 1/1/4 6/6/4 2/2/4
