# Thin open wire prism. Stretch source starts at Z=0 and ends at Z=-1.
o wire_stretch
v -0.025 5.475  0.000
v  0.025 5.475  0.000
v  0.025 5.525  0.000
v -0.025 5.525  0.000
v -0.025 5.475 -1.000
v  0.025 5.475 -1.000
v  0.025 5.525 -1.000
v -0.025 5.525 -1.000
vt 0.0 0.0
vt 1.0 0.0
vt 1.0 1.0
vt 0.0 1.0
vt 0.0 0.0
vt 1.0 0.0
vt 1.0 1.0
vt 0.0 1.0
vn  0.0  1.0  0.0
vn  1.0  0.0  0.0
vn -1.0  0.0  0.0
vn  0.0 -1.0  0.0
f 4/4/1 3/3/1 7/7/1
f 4/4/1 7/7/1 8/8/1
f 3/3/2 2/2/2 6/6/2
f 3/3/2 6/6/2 7/7/2
f 1/1/3 4/4/3 8/8/3
f 1/1/3 8/8/3 5/5/3
f 1/1/4 5/5/4 6/6/4
f 1/1/4 6/6/4 2/2/4
